<svg width="19" height="19" viewBox="0 0 19 19" fill="none" xmlns="http://www.w3.org/2000/svg">
<path d="M6.72917 3.16667H4.75C3.87555 3.16667 3.16667 3.87555 3.16667 4.75001V15.8333C3.16667 16.7078 3.87555 17.4167 4.75 17.4167H9.5" stroke="white" stroke-width="1.5" stroke-linecap="round"/>
<path d="M12.2708 3.16667H14.25C15.1245 3.16667 15.8333 3.87555 15.8333 4.75001V11.875" stroke="white" stroke-width="1.5" stroke-linecap="round"/>
<path d="M6.33333 5.06667V3.56251C6.33333 3.34389 6.51055 3.16667 6.72917 3.16667C6.94778 3.16667 7.12834 2.98937 7.16579 2.77399C7.28308 2.09928 7.73774 0.791672 9.5 0.791672C11.2622 0.791672 11.7169 2.09928 11.8342 2.77399C11.8717 2.98937 12.0523 3.16667 12.2708 3.16667C12.4894 3.16667 12.6667 3.34389 12.6667 3.56251V5.06667C12.6667 5.32901 12.454 5.54167 12.1917 5.54167H6.80833C6.546 5.54167 6.33333 5.32901 6.33333 5.06667Z" stroke="white" stroke-width="1.5" stroke-linecap="round"/>
<path d="M12.2708 16.2292L13.8542 17.8125L17.8125 13.8542" stroke="white" stroke-width="1.5" stroke-linecap="round" stroke-linejoin="round"/>
</svg>
