<svg width="19" height="19" viewBox="0 0 19 19" fill="none" xmlns="http://www.w3.org/2000/svg">
<path d="M3.16667 15.0417V3.95833C3.16667 3.08388 3.87555 2.375 4.75 2.375H15.3583C15.6207 2.375 15.8333 2.58767 15.8333 2.85V13.2322" stroke="#00404E" stroke-width="1.5" stroke-linecap="round"/>
<path d="M7.91667 11.0833C7.91667 11.0833 8.62917 8.61523 10.2917 7.125" stroke="#00404E" stroke-width="1.5" stroke-linecap="round" stroke-linejoin="round"/>
<path d="M10.1351 9.83606L10.0286 9.84611C8.68918 9.97191 7.49629 8.98866 7.3642 7.64985C7.23209 6.31106 8.21077 5.12373 9.55019 4.99787L11.9138 4.77578C12.0655 4.76153 12.2005 4.87285 12.2154 5.02441L12.4171 7.06765C12.555 8.46521 11.5332 9.70472 10.1351 9.83606Z" stroke="#00404E" stroke-width="1.5" stroke-linecap="round" stroke-linejoin="round"/>
<path d="M4.75 13.4583H15.8333" stroke="#00404E" stroke-width="1.5" stroke-linecap="round"/>
<path d="M4.75 16.625H15.8333" stroke="#00404E" stroke-width="1.5" stroke-linecap="round"/>
<path d="M4.75 16.625C3.87555 16.625 3.16667 15.9162 3.16667 15.0417C3.16667 14.1672 3.87555 13.4583 4.75 13.4583" stroke="#00404E" stroke-width="1.5" stroke-linecap="round" stroke-linejoin="round"/>
</svg>
