<svg width="24" height="19" viewBox="0 0 24 19" fill="none" xmlns="http://www.w3.org/2000/svg">
<g clip-path="url(#clip0_1_180)">
<path d="M8.3639 8.58012C8.86372 8.51298 9.36355 8.68456 9.7179 9.03892L10.6131 9.93413L11.4598 9.09114L10.2364 7.87141C10.0461 7.68118 10.0461 7.37159 10.2364 7.18135C10.4266 6.99112 10.7362 6.99112 10.9264 7.18135L12.1499 8.40481L12.9966 7.56182L12.0977 6.66288C11.7433 6.30852 11.5717 5.80497 11.6389 5.30887C11.7881 4.17494 11.4263 2.98879 10.5572 2.11596C9.66941 1.2282 8.45342 0.87012 7.30083 1.0417C7.11806 1.06781 7.04346 1.29535 7.17401 1.4259L8.3266 2.57848C8.87491 3.1268 8.87491 4.01455 8.3266 4.55913L7.61789 5.26784C7.06957 5.81616 6.18182 5.81616 5.63723 5.26784L4.48092 4.11526C4.35037 3.98471 4.12657 4.05931 4.09673 4.24208C3.92514 5.39466 4.28323 6.61066 5.17098 7.49841C6.04381 8.36751 7.22996 8.72932 8.3639 8.58012Z" fill="#003F52"/>
<path d="M15.533 10.0983L14.6863 10.9412L19.7144 15.9693C19.9046 16.1596 19.9046 16.4692 19.7144 16.6594C19.5242 16.8496 19.2146 16.8496 19.0244 16.6594L13.9963 11.6313L13.1495 12.4743L18.3306 17.6553C18.9871 18.3118 20.0501 18.3081 20.7066 17.6516C21.3631 16.9951 21.3631 15.932 20.7103 15.2756L15.533 10.0983Z" fill="#003F52"/>
<path d="M17.4764 6.74121H19.7107L21.945 2.27635L20.8297 1.16106L16.3611 3.39163V5.62593L10.2886 11.6798L9.19569 10.5906L4.79424 14.9921C3.87665 15.9097 3.87665 17.3942 4.79424 18.3118C5.71183 19.2294 7.19639 19.2294 8.11398 18.3118L12.5154 13.9104L11.4001 12.7951L17.4764 6.74121Z" fill="#003F52"/>
</g>
<defs>
<clipPath id="clip0_1_180">
<rect width="18" height="18" fill="white" transform="translate(4 1)"/>
</clipPath>
</defs>
</svg>
